<?xml version="1.0" standalone="no"?>
<!DOCTYPE svg PUBLIC "-//W3C//DTD SVG 20010904//EN"
 "http://www.w3.org/TR/2001/REC-SVG-20010904/DTD/svg10.dtd">
<svg version="1.0" xmlns="http://www.w3.org/2000/svg"
 width="688.000000pt" height="689.000000pt" viewBox="0 0 688.000000 689.000000"
 preserveAspectRatio="xMidYMid meet">

<g transform="translate(0.000000,689.000000) scale(0.100000,-0.100000)"
fill="#000000" stroke="none">
<path d="M525 6849 c5 -8 82 -122 171 -255 110 -163 187 -290 239 -395 99
-197 165 -298 260 -398 247 -259 555 -348 1059 -307 554 46 1339 35 1901 -25
469 -50 753 -269 856 -659 27 -106 37 -329 19 -452 -59 -404 -316 -679 -736
-787 -162 -42 -201 -44 -906 -50 l-686 -6 553 -840 c1511 -2294 1691 -2563
1743 -2602 86 -65 63 -63 954 -61 l806 3 -710 1040 c-390 572 -761 1115 -823
1206 l-113 166 131 78 c282 167 321 192 444 284 147 109 377 333 472 459 402
534 515 1188 334 1947 -124 523 -412 948 -833 1230 -105 70 -333 183 -463 230
-300 107 -613 159 -1123 185 -111 5 -956 13 -1879 17 -1446 5 -1677 4 -1670
-8z"/>
<path d="M969 2010 c-462 -78 -801 -437 -848 -897 -43 -422 182 -825 563
-1008 39 -19 112 -46 161 -61 84 -26 103 -28 270 -28 158 -1 190 2 265 22 387
106 671 422 735 817 15 94 18 192 7 284 l-7 53 -175 -140 -176 -140 -11 -57
c-35 -164 -181 -344 -343 -424 -193 -94 -388 -94 -580 0 -110 55 -227 169
-283 276 -171 328 -46 719 284 888 157 80 351 92 515 30 l64 -24 53 57 c156
167 187 203 182 212 -10 16 -122 70 -200 97 -139 47 -342 66 -476 43z"/>
<path d="M1661 1408 c-439 -326 -485 -358 -500 -344 -9 8 -43 51 -76 95 l-60
80 -209 1 c-165 0 -206 -3 -199 -12 5 -7 130 -167 278 -356 214 -273 271 -340
280 -330 18 19 960 1202 969 1216 4 7 6 12 4 11 -2 0 -221 -163 -487 -361z"/>
</g>
</svg>
