<svg width="30" height="30" viewBox="0 0 30 30" fill="none" xmlns="http://www.w3.org/2000/svg">
<path d="M12.6149 12.615C12.2833 12.924 12.0173 13.2966 11.8329 13.7106C11.6484 14.1246 11.5492 14.5715 11.5412 15.0247C11.5332 15.4778 11.6166 15.9279 11.7863 16.3482C11.9561 16.7684 12.2087 17.1502 12.5292 17.4707C12.8497 17.7912 13.2314 18.0438 13.6517 18.2136C14.0719 18.3833 14.5221 18.4667 14.9752 18.4587C15.4284 18.4507 15.8753 18.3515 16.2893 18.167C16.7033 17.9826 17.0759 17.7166 17.3849 17.385M13.5712 7.215C14.0452 7.15595 14.5223 7.12589 15 7.125C22.875 7.125 26.25 15 26.25 15C25.747 16.0768 25.1162 17.089 24.3712 18.015M8.93625 8.93623C6.69891 10.4602 4.90861 12.5534 3.75 15C3.75 15 7.125 22.875 15 22.875C17.1554 22.8808 19.2646 22.2507 21.0637 21.0637M3.75 3.75L26.25 26.25" stroke="#7A7B80" stroke-width="2" stroke-linecap="round" stroke-linejoin="round"/>
</svg>
