<svg width="34" height="34" viewBox="0 0 34 34" fill="none" xmlns="http://www.w3.org/2000/svg">
<path d="M13.1734 5.52539H6.79844C6.09427 5.52539 5.52344 6.09623 5.52344 6.80039V13.1754C5.52344 13.8796 6.09427 14.4504 6.79844 14.4504H13.1734C13.8776 14.4504 14.4484 13.8796 14.4484 13.1754V6.80039C14.4484 6.09623 13.8776 5.52539 13.1734 5.52539Z" stroke="#E8E8E8" stroke-width="2" stroke-linecap="round" stroke-linejoin="round"/>
<path d="M27.1984 5.52539H20.8234C20.1193 5.52539 19.5484 6.09623 19.5484 6.80039V13.1754C19.5484 13.8796 20.1193 14.4504 20.8234 14.4504H27.1984C27.9026 14.4504 28.4734 13.8796 28.4734 13.1754V6.80039C28.4734 6.09623 27.9026 5.52539 27.1984 5.52539Z" stroke="#E8E8E8" stroke-width="2" stroke-linecap="round" stroke-linejoin="round"/>
<path d="M27.1984 19.5504H20.8234C20.1193 19.5504 19.5484 20.1212 19.5484 20.8254V27.2004C19.5484 27.9046 20.1193 28.4754 20.8234 28.4754H27.1984C27.9026 28.4754 28.4734 27.9046 28.4734 27.2004V20.8254C28.4734 20.1212 27.9026 19.5504 27.1984 19.5504Z" stroke="#E8E8E8" stroke-width="2" stroke-linecap="round" stroke-linejoin="round"/>
<path d="M13.1734 19.5504H6.79844C6.09427 19.5504 5.52344 20.1212 5.52344 20.8254V27.2004C5.52344 27.9046 6.09427 28.4754 6.79844 28.4754H13.1734C13.8776 28.4754 14.4484 27.9046 14.4484 27.2004V20.8254C14.4484 20.1212 13.8776 19.5504 13.1734 19.5504Z" stroke="#E8E8E8" stroke-width="2" stroke-linecap="round" stroke-linejoin="round"/>
</svg>
