<svg width="34" height="34" viewBox="0 0 34 34" fill="none" xmlns="http://www.w3.org/2000/svg">
<path d="M4.25 4.25H7.08333L7.65 7.08333M7.65 7.08333H29.75L24.0833 18.4167H9.91667M7.65 7.08333L9.91667 18.4167M9.91667 18.4167L6.66825 21.6651C5.77575 22.5576 6.40758 24.0833 7.66983 24.0833H24.0833M24.0833 24.0833C23.3319 24.0833 22.6112 24.3818 22.0799 24.9132C21.5485 25.4446 21.25 26.1652 21.25 26.9167C21.25 27.6681 21.5485 28.3888 22.0799 28.9201C22.6112 29.4515 23.3319 29.75 24.0833 29.75C24.8348 29.75 25.5554 29.4515 26.0868 28.9201C26.6182 28.3888 26.9167 27.6681 26.9167 26.9167C26.9167 26.1652 26.6182 25.4446 26.0868 24.9132C25.5554 24.3818 24.8348 24.0833 24.0833 24.0833ZM12.75 26.9167C12.75 27.6681 12.4515 28.3888 11.9201 28.9201C11.3888 29.4515 10.6681 29.75 9.91667 29.75C9.16522 29.75 8.44455 29.4515 7.9132 28.9201C7.38184 28.3888 7.08333 27.6681 7.08333 26.9167C7.08333 26.1652 7.38184 25.4446 7.9132 24.9132C8.44455 24.3818 9.16522 24.0833 9.91667 24.0833C10.6681 24.0833 11.3888 24.3818 11.9201 24.9132C12.4515 25.4446 12.75 26.1652 12.75 26.9167Z" stroke="#E8E8E8" stroke-width="2" stroke-linecap="round" stroke-linejoin="round"/>
</svg>
