<svg width="34" height="34" viewBox="0 0 34 34" fill="none" xmlns="http://www.w3.org/2000/svg">
<path d="M17.2779 4.25H16.7169C16.0406 4.25 15.392 4.51866 14.9138 4.99688C14.4356 5.4751 14.1669 6.1237 14.1669 6.8V7.0295C14.1665 7.47667 14.0484 7.91587 13.8246 8.30302C13.6008 8.69017 13.2792 9.01166 12.8919 9.23525L12.3437 9.554C11.956 9.77781 11.5163 9.89563 11.0687 9.89563C10.621 9.89563 10.1813 9.77781 9.79366 9.554L9.60241 9.452C9.01727 9.11446 8.32211 9.02289 7.66952 9.19739C7.01693 9.37189 6.46024 9.79821 6.12166 10.3827L5.84116 10.8672C5.50362 11.4524 5.41206 12.1476 5.58656 12.8001C5.76106 13.4527 6.18737 14.0094 6.77191 14.348L6.96316 14.4755C7.34857 14.698 7.66903 15.0175 7.8927 15.4022C8.11638 15.7869 8.23548 16.2235 8.23816 16.6685V17.3187C8.23995 17.7681 8.12297 18.2099 7.89907 18.5995C7.67517 18.9891 7.35231 19.3126 6.96316 19.5372L6.77191 19.652C6.18737 19.9906 5.76106 20.5473 5.58656 21.1999C5.41206 21.8524 5.50362 22.5476 5.84116 23.1327L6.12166 23.6172C6.46024 24.2018 7.01693 24.6281 7.66952 24.8026C8.32211 24.9771 9.01727 24.8855 9.60241 24.548L9.79366 24.446C10.1813 24.2222 10.621 24.1044 11.0687 24.1044C11.5163 24.1044 11.956 24.2222 12.3437 24.446L12.8919 24.7647C13.2792 24.9883 13.6008 25.3098 13.8246 25.697C14.0484 26.0841 14.1665 26.5233 14.1669 26.9705V27.2C14.1669 27.8763 14.4356 28.5249 14.9138 29.0031C15.392 29.4813 16.0406 29.75 16.7169 29.75H17.2779C17.9542 29.75 18.6028 29.4813 19.081 29.0031C19.5593 28.5249 19.8279 27.8763 19.8279 27.2V26.9705C19.8284 26.5233 19.9464 26.0841 20.1702 25.697C20.394 25.3098 20.7156 24.9883 21.1029 24.7647L21.6512 24.446C22.0388 24.2222 22.4785 24.1044 22.9262 24.1044C23.3738 24.1044 23.8135 24.2222 24.2012 24.446L24.3924 24.548C24.9776 24.8855 25.6727 24.9771 26.3253 24.8026C26.9779 24.6281 27.5346 24.2018 27.8732 23.6172L28.1537 23.12C28.4912 22.5349 28.5828 21.8397 28.4083 21.1871C28.2338 20.5345 27.8075 19.9778 27.2229 19.6392L27.0317 19.5372C26.6425 19.3126 26.3197 18.9891 26.0958 18.5995C25.8719 18.2099 25.7549 17.7681 25.7567 17.3187V16.6812C25.7549 16.2319 25.8719 15.7901 26.0958 15.4005C26.3197 15.0109 26.6425 14.6874 27.0317 14.4627L27.2229 14.348C27.8075 14.0094 28.2338 13.4527 28.4083 12.8001C28.5828 12.1476 28.4912 11.4524 28.1537 10.8672L27.8732 10.3827C27.5346 9.79821 26.9779 9.37189 26.3253 9.19739C25.6727 9.02289 24.9776 9.11446 24.3924 9.452L24.2012 9.554C23.8135 9.77781 23.3738 9.89563 22.9262 9.89563C22.4785 9.89563 22.0388 9.77781 21.6512 9.554L21.1029 9.23525C20.7156 9.01166 20.394 8.69017 20.1702 8.30302C19.9464 7.91587 19.8284 7.47667 19.8279 7.0295V6.8C19.8279 6.1237 19.5593 5.4751 19.081 4.99688C18.6028 4.51866 17.9542 4.25 17.2779 4.25Z" stroke="#E8E8E8" stroke-width="2" stroke-linecap="round" stroke-linejoin="round"/>
<path d="M16.9974 20.825C19.1099 20.825 20.8224 19.1125 20.8224 17C20.8224 14.8875 19.1099 13.175 16.9974 13.175C14.8849 13.175 13.1724 14.8875 13.1724 17C13.1724 19.1125 14.8849 20.825 16.9974 20.825Z" stroke="#E8E8E8" stroke-width="2" stroke-linecap="round" stroke-linejoin="round"/>
</svg>
