<svg width="34" height="34" viewBox="0 0 34 34" fill="none" xmlns="http://www.w3.org/2000/svg">
<path d="M28.4734 15.7254V8.07539C28.4734 7.39909 28.2048 6.75049 27.7266 6.27227C27.2483 5.79405 26.5997 5.52539 25.9234 5.52539H8.07344C7.39714 5.52539 6.74853 5.79405 6.27032 6.27227C5.7921 6.75049 5.52344 7.39909 5.52344 8.07539V25.9254C5.52344 26.6017 5.7921 27.2503 6.27032 27.7285C6.74853 28.2067 7.39714 28.4754 8.07344 28.4754H15.7234M27.6235 19.1254H21.2485C20.6849 19.1254 20.1444 19.3493 19.7459 19.7478C19.3474 20.1463 19.1235 20.6868 19.1235 21.2504C19.1235 21.814 19.3474 22.3545 19.7459 22.753C20.1444 23.1515 20.6849 23.3754 21.2485 23.3754H25.4985C26.0621 23.3754 26.6026 23.5993 27.0011 23.9978C27.3996 24.3963 27.6235 24.9368 27.6235 25.5004C27.6235 26.064 27.3996 26.6045 27.0011 27.003C26.6026 27.4015 26.0621 27.6254 25.4985 27.6254H19.1235M23.3735 29.7504V17.0004M10.6235 10.6254H20.186M10.6235 14.3441H17.3172M10.6235 18.0629H14.4485" stroke="#E8E8E8" stroke-width="2" stroke-linecap="round" stroke-linejoin="round"/>
</svg>
